<svg id="Layer_1" data-name="Layer 1" xmlns="http://www.w3.org/2000/svg" width="445" height="445" viewBox="0 0 445 445"><defs><style>.cls-1{fill:#fff;stroke:#2b2b2b;stroke-miterlimit:10;stroke-width:20px;}.cls-2{fill:#2b2b2b;}</style></defs><title>logo</title><rect class="cls-1" x="10" y="10" width="425" height="425" rx="212.5" ry="212.5"/><path class="cls-2" d="M143.22,232.11l4.26-39.42a41.65,41.65,0,0,0-14.63-2.38c-6.21,18.14-10,38.93-8.88,50,.35,3.4,1.36,4.91,2.09,5.8-5.74.58-14.26,1.24-15.39-9.82-1-9.57,3.63-27.65,11.23-44.85-6.55,1.1-10.86,3-11.87,6.79.53-.05,1.56,1.67,1.72,3.15.26,2.55-2.24,4.42-5.53,4.75-3.61.37-6.8-1.35-7.22-5.49-.73-7.23,7.81-14,20.35-15.28,1.49-.15,3.31-.23,5.56-.24,9-18.1,21.37-33.85,33.8-35.12a23.88,23.88,0,0,1,8.55.63l-8.73,79.93Zm8-73.73c-6,4-11.83,14.63-16.57,27.14a72.21,72.21,0,0,1,13.35,2.4Z" transform="translate(-33.5 -33.5)"/><path class="cls-2" d="M235.45,153.79l-7.73,69.73-15.31,1.56,7.94-71.9-1.28.13c-11.27,1.15-19.54,6.39-17.8,23.5.55,5.42,2,6.13,2.22,7.08-7.33.75-11.64-1.5-12.42-9.15-1.44-14.14,7.18-28.65,33.44-31.32,12.86-1.31,17,.74,27.46-.32a34.72,34.72,0,0,0,12.1-3.49c.73,9.27-3.41,14-11.91,14.85C247,155,241.32,154.48,235.45,153.79Z" transform="translate(-33.5 -33.5)"/><path class="cls-2" d="M283.63,177.67c3.64-1.12,5.84-6,6.8-8.1l3.4-.35c-1.66,4.79-4.18,11.7-9.5,15.36.8,20.54-8.52,34.48-21.91,35.84-9.89,1-17.48-2.95-18.71-15.06s3.07-38.44,25-40.66C277.06,163.84,282,168.27,283.63,177.67Zm-8.17,9.42c-1.77-.46-2.77-1.87-3-4.52-.29-2.87.69-4.8,2.42-5.83-.67-4.44-2-5.92-4.66-5.65-7.55.77-11.84,20.86-10.78,31.27.71,7,2.26,8.47,6.3,8.06C270.9,209.89,275.14,199.79,275.46,187.09Z" transform="translate(-33.5 -33.5)"/><path class="cls-2" d="M361.78,197.43c-.45-4.46,2.88-6.52,5.75-6.81,3.93-.4,5.75,2.64,6,5.61.55,5.42-3.85,12.85-12.35,13.71l-38.37,3.9,29.68-77.76c-2.23.23-6,.39-9.59.76-5,.51-9.74,1.42-9.54,3.33.74-.08,1.89.67,2.15,3.22.48,4.68-3.1,6.44-5.66,6.7-4,.41-5.76-2.74-6.06-5.72-.54-5.31,3.45-11.52,11.95-12.38l36.46-3.71L343,204.81c2.76-.28,6.72-.47,10.23-.82,5-.51,9.63-1.41,10.82-3.46C363.28,200.6,362,200,361.78,197.43Z" transform="translate(-33.5 -33.5)"/><path class="cls-2" d="M122.76,262a32.7,32.7,0,0,1,6.8-.06,21.47,21.47,0,0,1,5.35,1.22,14.32,14.32,0,0,1,4,2.28,14,14,0,0,1,2.83,3.12,15.09,15.09,0,0,1,1.78,3.73,20.41,20.41,0,0,1,.86,4.14,28.19,28.19,0,0,1,0,6,30.64,30.64,0,0,1-1.29,6,27.93,27.93,0,0,1-2.49,5.58,22.14,22.14,0,0,1-3.69,4.72,19.26,19.26,0,0,1-4.82,3.41,16.94,16.94,0,0,1-5.91,1.67,16,16,0,0,1-2.25.06,20,20,0,0,1-2.25-.22q-1.1-.17-2.08-.42a14.76,14.76,0,0,1-1.75-.55,1.58,1.58,0,0,1-.5-.17.89.89,0,0,1-.3-.27,1.14,1.14,0,0,1-.16-.42q0-.25-.09-.65-.39-3.85-.61-7.92a74.21,74.21,0,0,1,0-8,47.65,47.65,0,0,1,1-7.53,24.72,24.72,0,0,1,2.38-6.57,5.46,5.46,0,0,1,2.88-1.44,3.31,3.31,0,0,1,3,1.62,14.68,14.68,0,0,0-1.46,3.39,27.75,27.75,0,0,0-.83,3.83q-.29,2-.41,4t-.2,4q-.11,2.17-.17,3.71t-.08,2.7q0,1.15,0,2t.11,1.68q.09.86.21,1.43a2.13,2.13,0,0,0,.37.9,1.22,1.22,0,0,0,.72.43,4,4,0,0,0,1.23,0,10.92,10.92,0,0,0,4.32-1.37,15,15,0,0,0,3.61-2.85,19.31,19.31,0,0,0,2.81-3.91,25.8,25.8,0,0,0,2-4.57,26.35,26.35,0,0,0,1-4.79,20.67,20.67,0,0,0,.07-4.59,12.55,12.55,0,0,0-1.37-4.73,10.19,10.19,0,0,0-2.84-3.35,10.81,10.81,0,0,0-4-1.87,14.87,14.87,0,0,0-5-.28,32.3,32.3,0,0,0-3.84.63,21.73,21.73,0,0,0-3.48,1.08,12.26,12.26,0,0,0-2.75,1.54,5.37,5.37,0,0,0-1.69,2q-1.43,2.8-2.37,4.34t-1.69,1.62q-1,.1-1.26-2.24a13.21,13.21,0,0,1,.18-4.15,11,11,0,0,1,1.32-3.38,10.57,10.57,0,0,1,2.27-2.65,14.72,14.72,0,0,1,3-1.95,19,19,0,0,1,3.59-1.32A26.18,26.18,0,0,1,122.76,262Z" transform="translate(-33.5 -33.5)"/><path class="cls-2" d="M170.35,292.18a21.52,21.52,0,0,1-1.25,1.89,17.62,17.62,0,0,1-1.82,2.11A12.68,12.68,0,0,1,165,298a5.8,5.8,0,0,1-2.49.89,3.54,3.54,0,0,1-2.66-.73,8.09,8.09,0,0,1-2.06-2.69,11.27,11.27,0,0,1-1.24,1.46,12.24,12.24,0,0,1-1.65,1.4,11.5,11.5,0,0,1-1.92,1.1,6.59,6.59,0,0,1-2.06.56,5.49,5.49,0,0,1-2.22-.23,5.67,5.67,0,0,1-2-1.11,6.38,6.38,0,0,1-1.51-1.93,7.41,7.41,0,0,1-.77-2.7,14,14,0,0,1,.13-3.63,19.64,19.64,0,0,1,1-3.73,20.5,20.5,0,0,1,1.7-3.52,16.34,16.34,0,0,1,2.29-3,12.6,12.6,0,0,1,2.75-2.15,7.75,7.75,0,0,1,3.08-1,1.46,1.46,0,0,1,.86.12,2.11,2.11,0,0,1,.55.43l.44.48a1.1,1.1,0,0,0,.5.32,2.11,2.11,0,0,0,.58.09,4.9,4.9,0,0,0,.6,0l.52-.07.52-.06a3,3,0,0,1,.66,0,1.11,1.11,0,0,1,.56.25,1.54,1.54,0,0,1,.43.61,4.06,4.06,0,0,1,.24,1.12,14.94,14.94,0,0,1,0,2.5q-.1,1.38-.23,2.84t-.22,2.91a17.1,17.1,0,0,0,0,2.73,5.86,5.86,0,0,0,.37,1.69.82.82,0,0,0,.91.53,2.46,2.46,0,0,0,1-.35,6.42,6.42,0,0,0,1-.75,12.49,12.49,0,0,0,1-1q.49-.56.93-1.14a36.13,36.13,0,0,0,2-3.07Zm-20,.18a7.54,7.54,0,0,0,.2,1.12,3.34,3.34,0,0,0,.39.95,1.92,1.92,0,0,0,.63.64,1.42,1.42,0,0,0,.91.18,2.1,2.1,0,0,0,1.48-.9,7.31,7.31,0,0,0,1-1.91,12.83,12.83,0,0,0,.6-2.24,13.2,13.2,0,0,0,.22-1.9l.72-7a4,4,0,0,0-1.81.67,7,7,0,0,0-1.58,1.46,11.69,11.69,0,0,0-1.29,2,14.63,14.63,0,0,0-.94,2.31,13.9,13.9,0,0,0-.52,2.39A9.85,9.85,0,0,0,150.33,292.36Z" transform="translate(-33.5 -33.5)"/><path class="cls-2" d="M181.81,291.76a20.79,20.79,0,0,1-1.91,1.85,22.33,22.33,0,0,1-2.52,1.88,20.72,20.72,0,0,1-2.81,1.52,9.2,9.2,0,0,1-2.8.78,5.41,5.41,0,0,1-2.07-.13,3.4,3.4,0,0,1-1.43-.8,3.66,3.66,0,0,1-.88-1.4,7.88,7.88,0,0,1-.42-1.89,20.5,20.5,0,0,1,0-3.44q.14-2,.42-4.1t.61-4.25q.33-2.12.58-3.91a2.09,2.09,0,0,1,.55-1.1,4.15,4.15,0,0,1,1-.81,6.2,6.2,0,0,1,1.24-.53,6.49,6.49,0,0,1,1.18-.25,1.86,1.86,0,0,1,1.36.22,1.34,1.34,0,0,1,.45.93,6.9,6.9,0,0,1-.08,1.5q-.13,1-.36,2.24t-.48,2.7q-.25,1.45-.46,2.89t-.3,2.8a14.24,14.24,0,0,0,0,2.43,4.87,4.87,0,0,0,.4,1.64.92.92,0,0,0,1,.52,3.86,3.86,0,0,0,1.8-.77,16.65,16.65,0,0,0,1.92-1.62q1-.93,1.87-1.92t1.61-1.69ZM169,268.94a3.93,3.93,0,0,1,.74-2.58,4.24,4.24,0,0,1,1.29-1.14,5.17,5.17,0,0,1,2.13-.63,6.16,6.16,0,0,1,1.55,0,3.71,3.71,0,0,1,1.31.44,2.72,2.72,0,0,1,1,.92,3.31,3.31,0,0,1,.46,1.46,4.72,4.72,0,0,1-.1,1.56,3.6,3.6,0,0,1-.68,1.41,4.21,4.21,0,0,1-1.31,1.08,5.22,5.22,0,0,1-2,.57,4.17,4.17,0,0,1-3.12-.66A3.46,3.46,0,0,1,169,268.94Z" transform="translate(-33.5 -33.5)"/><path class="cls-2" d="M180.17,292q-.1-1-.12-2.39t0-2.9q0-1.53.15-3.12t.27-3q.16-1.45.34-2.66a16.59,16.59,0,0,1,.41-2,4.53,4.53,0,0,1,.29-.85,1.63,1.63,0,0,1,.38-.52,1.43,1.43,0,0,1,.58-.29,5.86,5.86,0,0,1,.89-.15,6.07,6.07,0,0,1,.95,0,.76.76,0,0,1,.53.23,1.26,1.26,0,0,1,.26.62c.05.28.1.66.15,1.13l.21,2.08q.12,1.22.29,2.4l.26,0,.83-2.19A13.65,13.65,0,0,1,188,276a8,8,0,0,1,1.57-1.86,3.84,3.84,0,0,1,2.18-.91,2.54,2.54,0,0,1,.88.06,2.26,2.26,0,0,1,.78.36,2.09,2.09,0,0,1,.57.63,2.19,2.19,0,0,1,.28.9,7.28,7.28,0,0,1,0,1.12q0,.72-.1,1.51t-.1,1.54a8,8,0,0,0,0,1.23,5.1,5.1,0,0,0,.3,1.38,2.61,2.61,0,0,0,.52.85,1.52,1.52,0,0,0,.65.41,1.85,1.85,0,0,0,.72.07,5.64,5.64,0,0,0,2.11-.68,14,14,0,0,0,1.94-1.25,19.56,19.56,0,0,0,2-1.75l.2,5.47-1.28,1a17.56,17.56,0,0,1-1.54,1.08,12.38,12.38,0,0,1-1.74.9,6.49,6.49,0,0,1-1.89.49,5,5,0,0,1-2.88-.42,5.18,5.18,0,0,1-1.88-1.69,9.51,9.51,0,0,1-1.19-2.48q-.45-1.4-.78-2.84l-.37,0-3,12a15,15,0,0,1-.46,1.56,5.1,5.1,0,0,1-.49,1,1.78,1.78,0,0,1-.6.59,1.93,1.93,0,0,1-.75.23,2.63,2.63,0,0,1-1.57-.25,2.66,2.66,0,0,1-1-1,5.24,5.24,0,0,1-.58-1.51A15.48,15.48,0,0,1,180.17,292Z" transform="translate(-33.5 -33.5)"/><path class="cls-2" d="M210.81,275.79a3.64,3.64,0,0,1,.52-1.47,4.83,4.83,0,0,1,1-1.15,4.9,4.9,0,0,1,1.23-.76,4.38,4.38,0,0,1,1.26-.34,2.2,2.2,0,0,1,1.24.19,1.09,1.09,0,0,1,.59.94,2,2,0,0,1,0,.49c-.05.41-.11,1-.18,1.69s-.14,1.52-.21,2.42-.14,1.85-.21,2.85-.13,2-.19,3q-.23,3.5-.43,7.51a17.12,17.12,0,0,0,1.41-1.13,16,16,0,0,0,1.65-1.74q.9-1.08,2-2.68t2.39-4l1.64,5a9.48,9.48,0,0,1-.93,1.58q-.59.82-1.31,1.66t-1.52,1.63q-.8.8-1.57,1.51-1.82,1.69-4,3.31-.19,2.53-.55,5a35.85,35.85,0,0,1-1,4.56,25.12,25.12,0,0,1-1.5,4A13.92,13.92,0,0,1,210,313a10.13,10.13,0,0,1-2.79,2.22,9.48,9.48,0,0,1-3.58,1.06,9.88,9.88,0,0,1-1.72,0,4.73,4.73,0,0,1-1.76-.48,3.83,3.83,0,0,1-1.43-1.26,4.94,4.94,0,0,1-.76-2.36,6.36,6.36,0,0,1,.29-2.41,17.44,17.44,0,0,1,1.18-2.91,33,33,0,0,1,1.9-3.24q1.12-1.7,2.46-3.41t2.82-3.38q1.48-1.68,3-3.22l.41-2.22a12.21,12.21,0,0,1-2.43,2.07,5.87,5.87,0,0,1-2.57,1,5.53,5.53,0,0,1-2.22-.23,5.67,5.67,0,0,1-2-1.11,6.37,6.37,0,0,1-1.51-1.94,7.38,7.38,0,0,1-.77-2.7,32.5,32.5,0,0,1-.18-3.74,27.09,27.09,0,0,1,.24-3.29,23.2,23.2,0,0,1,.63-3.06q.41-1.49,1-3a3.7,3.7,0,0,1,1.37-1.75,4.09,4.09,0,0,1,1.9-.74,2.39,2.39,0,0,1,1.44.27,1.45,1.45,0,0,1,.71,1.21,2.93,2.93,0,0,1,0,.56,3.63,3.63,0,0,1-.13.67q-.31,1.11-.57,2.6t-.42,3q-.16,1.55-.2,3a20.82,20.82,0,0,0,.08,2.6,7.65,7.65,0,0,0,.2,1.12,3.33,3.33,0,0,0,.39.95,1.93,1.93,0,0,0,.63.64,1.41,1.41,0,0,0,.91.18,2.1,2.1,0,0,0,1.48-.9,7.31,7.31,0,0,0,1-1.91,12.82,12.82,0,0,0,.6-2.24,13.09,13.09,0,0,0,.22-1.9Zm-7.32,36a3.35,3.35,0,0,0,1.79-.76,6.82,6.82,0,0,0,1.45-1.66,12.88,12.88,0,0,0,1.12-2.25,23.71,23.71,0,0,0,.82-2.54q.34-1.29.54-2.51t.3-2.17a17.18,17.18,0,0,0-1.7,1.63q-.85.93-1.65,2t-1.49,2.16q-.7,1.1-1.21,2.11a12.28,12.28,0,0,0-.77,1.85,3.62,3.62,0,0,0-.21,1.38Q202.56,311.93,203.49,311.83Z" transform="translate(-33.5 -33.5)"/><path class="cls-2" d="M244.31,262s0,.14,0,.33a1.25,1.25,0,0,1-.19.63,2,2,0,0,1-.7.66,3.59,3.59,0,0,1-1.5.41,11.31,11.31,0,0,1-2.12.06,2.86,2.86,0,0,1-1.16-.3,1.09,1.09,0,0,1-.5-.56,2.89,2.89,0,0,1-.15-.68,10.1,10.1,0,0,1,1.14-6.11,13,13,0,0,1,4.48-4.55,26.89,26.89,0,0,1,7.31-3.09,58.89,58.89,0,0,1,9.64-1.73q3.53-.36,7.42-.52t8.06,0a3,3,0,0,1,1.73.76,2.11,2.11,0,0,1,.58,1.23,3.69,3.69,0,0,1,0,.94,3.38,3.38,0,0,1-.29.95,2.11,2.11,0,0,1-.62.75,1.89,1.89,0,0,1-1,.37H276q-1.54-.1-3.32-.12t-3.73.05q-1.94.07-4,.22t-4.17.37q-.63.06-1.49.22l-1.67.33q-.92.19-1.9.43a4.29,4.29,0,0,1,0,.58c0,.22,0,.53,0,.92s0,.9-.07,1.51,0,1.4-.08,2.37,0,2.13-.07,3.49,0,3,0,4.86l12.89-1.31a1.45,1.45,0,0,1,.88.13,1.31,1.31,0,0,1,.5.51,2.25,2.25,0,0,1,.24.7c0,.25.07.5.1.73a2.5,2.5,0,0,1-.32,1.72,1.37,1.37,0,0,1-.94.66l-1.07.14-2.2.31-2.85.39-3,.41-2.64.35-1.8.22q-.13,2.85-.4,5.51a37,37,0,0,1-.84,5,24,24,0,0,1-1.47,4.32,12.91,12.91,0,0,1-2.28,3.45A11.12,11.12,0,0,1,247,292.4a13.08,13.08,0,0,1-4.46,1.19q-.53.05-1.28.06a15.14,15.14,0,0,1-1.58-.07,13.74,13.74,0,0,1-1.66-.27,6.61,6.61,0,0,1-1.5-.52,3.81,3.81,0,0,1-1.12-.81,1.94,1.94,0,0,1-.52-1.16,3.78,3.78,0,0,1,.06-.93,4.46,4.46,0,0,1,.35-1.15,3.52,3.52,0,0,1,.7-1,1.75,1.75,0,0,1,1.11-.51,5.65,5.65,0,0,1,1.64.09q.87.17,1.81.39t1.92.38a7.49,7.49,0,0,0,2,.06,2.28,2.28,0,0,0,1.42-.77,6.73,6.73,0,0,0,1.19-1.83,18.6,18.6,0,0,0,1-2.66q.43-1.51.77-3.25t.59-3.62q.25-1.88.44-3.75l-2.86.29a6.24,6.24,0,0,1-1,0,4.91,4.91,0,0,1-1.15-.2,2.74,2.74,0,0,1-1-.5,1.27,1.27,0,0,1-.47-.89,1.43,1.43,0,0,1,.13-.76,1.23,1.23,0,0,1,.65-.58l2.23-.72,1.69-.54,1.31-.4c.38-.12.73-.21,1-.29q.3-2.54.44-4.41t.22-3.39q.08-1.52.15-2.87t.2-2.86a17.36,17.36,0,0,0-3.37,1.75,11.76,11.76,0,0,0-2.29,2,6.49,6.49,0,0,0-1.24,2.07A4.62,4.62,0,0,0,244.31,262Z" transform="translate(-33.5 -33.5)"/><path class="cls-2" d="M290.63,279.95a21.67,21.67,0,0,1-1.25,1.89,17.54,17.54,0,0,1-1.82,2.11,12.63,12.63,0,0,1-2.24,1.78,5.79,5.79,0,0,1-2.49.89,3.54,3.54,0,0,1-2.66-.73,8.08,8.08,0,0,1-2.06-2.69,11.49,11.49,0,0,1-1.24,1.46,12.29,12.29,0,0,1-1.65,1.4,11.48,11.48,0,0,1-1.92,1.1,6.6,6.6,0,0,1-2.05.56,5.51,5.51,0,0,1-2.22-.23,5.69,5.69,0,0,1-2-1.11,6.42,6.42,0,0,1-1.51-1.94,7.43,7.43,0,0,1-.77-2.7,14,14,0,0,1,.12-3.63,19.71,19.71,0,0,1,1-3.73,20.6,20.6,0,0,1,1.7-3.52,16.33,16.33,0,0,1,2.29-3,12.52,12.52,0,0,1,2.75-2.15,7.75,7.75,0,0,1,3.08-1,1.45,1.45,0,0,1,.86.12,2.13,2.13,0,0,1,.55.43l.44.48a1.08,1.08,0,0,0,.5.32,2.16,2.16,0,0,0,.58.09,4.93,4.93,0,0,0,.6,0l.52-.06.52-.07a3,3,0,0,1,.66,0,1.11,1.11,0,0,1,.56.25,1.54,1.54,0,0,1,.43.61,4,4,0,0,1,.24,1.13,14.94,14.94,0,0,1,0,2.5q-.1,1.38-.23,2.84t-.22,2.91a17,17,0,0,0,0,2.73,5.85,5.85,0,0,0,.37,1.69.82.82,0,0,0,.91.53,2.47,2.47,0,0,0,1-.35,6.51,6.51,0,0,0,1-.75,12.65,12.65,0,0,0,1-1c.33-.37.64-.75.93-1.14a35.84,35.84,0,0,0,2-3.07Zm-20,.18a7.65,7.65,0,0,0,.2,1.12,3.33,3.33,0,0,0,.39.95,1.91,1.91,0,0,0,.63.64,1.41,1.41,0,0,0,.91.18,2.1,2.1,0,0,0,1.48-.9,7.25,7.25,0,0,0,1-1.91,12.85,12.85,0,0,0,.61-2.24,13.35,13.35,0,0,0,.22-1.9l.72-7a4,4,0,0,0-1.81.67,7,7,0,0,0-1.58,1.46,11.64,11.64,0,0,0-1.29,2,14.52,14.52,0,0,0-.94,2.31,13.91,13.91,0,0,0-.52,2.39A9.86,9.86,0,0,0,270.61,280.13Z" transform="translate(-33.5 -33.5)"/><path class="cls-2" d="M288,281.06q-.1-1-.13-2.39t0-2.9q0-1.53.15-3.13t.27-3q.16-1.45.34-2.66a16.82,16.82,0,0,1,.41-2,4.49,4.49,0,0,1,.29-.85,1.62,1.62,0,0,1,.38-.52,1.4,1.4,0,0,1,.58-.29,5.85,5.85,0,0,1,.89-.15,6,6,0,0,1,.95,0,.76.76,0,0,1,.53.23,1.27,1.27,0,0,1,.26.62c.05.28.1.66.15,1.13l.21,2.08q.12,1.22.29,2.4l.26,0,.83-2.19a13.78,13.78,0,0,1,1.13-2.29,8,8,0,0,1,1.57-1.86,3.84,3.84,0,0,1,2.18-.92,2.54,2.54,0,0,1,.87.06,2.25,2.25,0,0,1,.78.36,2,2,0,0,1,.57.63,2.2,2.2,0,0,1,.28.9,7.32,7.32,0,0,1,0,1.12q0,.72-.1,1.51t-.1,1.54a7.87,7.87,0,0,0,0,1.23,5,5,0,0,0,.3,1.38,2.57,2.57,0,0,0,.52.85,1.52,1.52,0,0,0,.65.42,1.86,1.86,0,0,0,.72.07,5.61,5.61,0,0,0,2.11-.68,14.1,14.1,0,0,0,1.94-1.25,19.44,19.44,0,0,0,2-1.75l.2,5.47-1.28,1a17.32,17.32,0,0,1-1.54,1.08,12.27,12.27,0,0,1-1.74.9,6.43,6.43,0,0,1-1.89.49,5,5,0,0,1-2.88-.42,5.18,5.18,0,0,1-1.88-1.69,9.43,9.43,0,0,1-1.19-2.48q-.45-1.4-.78-2.84l-.37,0-3,12a15.25,15.25,0,0,1-.46,1.56,5.1,5.1,0,0,1-.5,1,1.76,1.76,0,0,1-.6.59,1.92,1.92,0,0,1-.75.23,2.64,2.64,0,0,1-1.57-.25,2.67,2.67,0,0,1-1-1,5.26,5.26,0,0,1-.58-1.51A15.2,15.2,0,0,1,288,281.06Z" transform="translate(-33.5 -33.5)"/><path class="cls-2" d="M317.76,278.55q0-.3,0-.86t0-1.29c0-.49,0-1,.05-1.54s0-1.08.07-1.62q.07-1.88.22-4.06l-.35,0a6.69,6.69,0,0,0-.53,1.11q-.29.73-.8,2.15t-1.31,3.67q-.79,2.25-2.07,5.64a2.5,2.5,0,0,1-2.27,1.87,2.45,2.45,0,0,1-2.58-1.25,5.26,5.26,0,0,1-.58-1.51,15.41,15.41,0,0,1-.29-1.79q-.1-1-.11-2.26t0-2.77q0-1.46.13-3t.22-2.92q.13-1.4.29-2.56t.32-1.91a9.66,9.66,0,0,1,.32-1.23,2.2,2.2,0,0,1,.41-.73,1.37,1.37,0,0,1,.61-.39,4.74,4.74,0,0,1,.94-.18,13.09,13.09,0,0,1,1.39-.08,1.33,1.33,0,0,1,.77.2,1,1,0,0,1,.36.61,10.87,10.87,0,0,1,.16,1.13c0,.26,0,.57.06.91s0,.71,0,1.1,0,.8,0,1.21,0,.82-.05,1.21q-.07,1.39-.15,2.88l.28.25s.16-.36.41-.93.55-1.26.92-2.07.76-1.65,1.19-2.53.84-1.66,1.24-2.34a8.22,8.22,0,0,1,1.27-1.73,2.75,2.75,0,0,1,1.74-.81,2.57,2.57,0,0,1,1.73.4,2,2,0,0,1,.86,1.54,12.33,12.33,0,0,1,.06,1.73c0,.55-.07,1.08-.13,1.61s-.13,1-.21,1.54-.14,1-.2,1.53c0,.37-.06.59-.07.69a1.31,1.31,0,0,0,0,.19l.28.25.45-.92q.4-.85,1-2.06t1.27-2.55q.67-1.34,1.27-2.36a11.5,11.5,0,0,1,1.19-1.71,2.32,2.32,0,0,1,1.58-.81,3,3,0,0,1,1.9.38,1.92,1.92,0,0,1,.92,1.54,27.34,27.34,0,0,1,.15,3.06q0,1.46-.08,2.87t-.08,2.86a26.78,26.78,0,0,0,.14,3,5.44,5.44,0,0,0,.53,2c.27.5.56.74.87.71a2.8,2.8,0,0,0,1-.31,7.72,7.72,0,0,0,1-.64,8.83,8.83,0,0,0,1-.87q.49-.48.93-1a26.38,26.38,0,0,0,2-2.65l1,5.44q-.94.92-1.86,1.89a17.84,17.84,0,0,1-2,1.8,11.5,11.5,0,0,1-2.36,1.41,9.57,9.57,0,0,1-3,.76,2,2,0,0,1-1.46-.4,3.88,3.88,0,0,1-1.07-1.43,10.48,10.48,0,0,1-.73-2.25,25.83,25.83,0,0,1-.44-2.87q-.15-1.46-.21-3.11t0-3.34l-.35,0-3.49,12.49a3.24,3.24,0,0,1-1.21,1.45,4.12,4.12,0,0,1-1.68.51,1.69,1.69,0,0,1-1.23-.29,2.74,2.74,0,0,1-.79-1A5.58,5.58,0,0,1,318,280,14.07,14.07,0,0,1,317.76,278.55Z" transform="translate(-33.5 -33.5)"/><path class="cls-2" d="M352.64,274.39a20.76,20.76,0,0,1-1.91,1.85,22.33,22.33,0,0,1-2.52,1.88,20.56,20.56,0,0,1-2.82,1.52,9.2,9.2,0,0,1-2.79.78,5.42,5.42,0,0,1-2.07-.13,3.4,3.4,0,0,1-1.43-.8,3.65,3.65,0,0,1-.88-1.4,7.88,7.88,0,0,1-.42-1.89,20.41,20.41,0,0,1,0-3.44q.14-2,.42-4.1t.61-4.25q.33-2.12.58-3.91a2.09,2.09,0,0,1,.55-1.1,4.14,4.14,0,0,1,1-.81,6.13,6.13,0,0,1,1.24-.53,6.45,6.45,0,0,1,1.18-.25,1.85,1.85,0,0,1,1.36.22,1.33,1.33,0,0,1,.45.93,6.88,6.88,0,0,1-.08,1.5q-.13,1-.36,2.24l-.48,2.7q-.25,1.45-.46,2.89t-.3,2.8a14.23,14.23,0,0,0,0,2.43,4.88,4.88,0,0,0,.4,1.64.92.92,0,0,0,1,.52,3.86,3.86,0,0,0,1.8-.77,16.49,16.49,0,0,0,1.92-1.62q1-.93,1.87-1.92t1.61-1.69Zm-12.81-22.82a3.94,3.94,0,0,1,.74-2.57,4.22,4.22,0,0,1,1.29-1.14,5.14,5.14,0,0,1,2.13-.63,6.14,6.14,0,0,1,1.55,0,3.72,3.72,0,0,1,1.31.44,2.71,2.71,0,0,1,1,.92,3.3,3.3,0,0,1,.46,1.45,4.72,4.72,0,0,1-.1,1.56,3.61,3.61,0,0,1-.68,1.41,4.22,4.22,0,0,1-1.31,1.08,5.22,5.22,0,0,1-2,.57,4.17,4.17,0,0,1-3.12-.66A3.47,3.47,0,0,1,339.83,251.57Z" transform="translate(-33.5 -33.5)"/><path class="cls-2" d="M351,274.65q-.16-1.53-.17-3.56t0-4.14q.07-2.11.22-4.07t.34-3.37a3.65,3.65,0,0,1,.81-1.89,2.72,2.72,0,0,1,1.91-.92,1.91,1.91,0,0,1,1.82.59,3.8,3.8,0,0,1,.7,2,8.68,8.68,0,0,1,0,.95c0,.4,0,.84,0,1.32s0,1-.07,1.49-.05,1-.08,1.42,0,.81-.06,1.13a5.27,5.27,0,0,0,0,.65l.46,0,.36-.87.56-1.38q.32-.78.69-1.65t.69-1.67q.32-.8.58-1.41l.4-.91a4.21,4.21,0,0,1,1.52-1.89,4.76,4.76,0,0,1,2.07-.68,2.16,2.16,0,0,1,1.95.79,4.65,4.65,0,0,1,1,2.62,5.87,5.87,0,0,1,0,.87c0,.41-.07.9-.12,1.47s-.11,1.19-.17,1.87-.12,1.37-.15,2.08-.06,1.41-.06,2.09,0,1.32.09,1.89a6.65,6.65,0,0,0,.6,2.33,1.21,1.21,0,0,0,1.22.81,2,2,0,0,0,.78-.29,8.07,8.07,0,0,0,.92-.64,12,12,0,0,0,1-.89q.5-.5,1-1,1.12-1.22,2.33-2.73l.92,5.16-1.07,1q-.88.82-1.79,1.64a17.26,17.26,0,0,1-1.92,1.5,12.8,12.8,0,0,1-2.14,1.16,8.21,8.21,0,0,1-2.4.61q-1.28.13-2.34-1.63a13.17,13.17,0,0,1-1.42-5.31,26.65,26.65,0,0,1-.12-3q0-1.63.11-3.52l-.37,0-4.86,12.7a3,3,0,0,1-.91,1.41,2.57,2.57,0,0,1-1.31.49,2.63,2.63,0,0,1-1.58-.25,2.67,2.67,0,0,1-1-1,5.25,5.25,0,0,1-.58-1.51A15.24,15.24,0,0,1,351,274.65Z" transform="translate(-33.5 -33.5)"/><path class="cls-2" d="M382.37,273.9a12.24,12.24,0,0,1-2.43,2.07,5.88,5.88,0,0,1-2.57,1,5.51,5.51,0,0,1-2.22-.23,5.69,5.69,0,0,1-2-1.11,6.38,6.38,0,0,1-1.51-1.94,7.39,7.39,0,0,1-.77-2.7,14,14,0,0,1,.12-3.63,19.71,19.71,0,0,1,1-3.73,20.6,20.6,0,0,1,1.7-3.52,16.33,16.33,0,0,1,2.29-3,12.59,12.59,0,0,1,2.75-2.15,7.75,7.75,0,0,1,3.08-1,1.46,1.46,0,0,1,.86.12,2.11,2.11,0,0,1,.55.43l.44.48a1.08,1.08,0,0,0,.5.32,2.13,2.13,0,0,0,.58.09,4.9,4.9,0,0,0,.6,0l.52-.06.52-.06a3,3,0,0,1,.66,0,1.12,1.12,0,0,1,.56.25,1.56,1.56,0,0,1,.43.61,4.07,4.07,0,0,1,.24,1.13q.06.6.07,1.64t0,2.3c0,.85-.05,1.75-.09,2.7s-.08,1.88-.13,2.79q-.16,3.25-.42,7a17.26,17.26,0,0,0,1.41-1.13,16.09,16.09,0,0,0,1.65-1.74q.9-1.08,2-2.68t2.39-4l1.64,5a9.62,9.62,0,0,1-.93,1.58q-.59.82-1.31,1.66T393,274q-.8.8-1.57,1.51-1.82,1.69-4,3.31-.19,2.53-.55,5a35.8,35.8,0,0,1-1,4.56,24.91,24.91,0,0,1-1.5,4,13.9,13.9,0,0,1-2.09,3.19,10.14,10.14,0,0,1-2.79,2.22A9.49,9.49,0,0,1,376,298.8a9.88,9.88,0,0,1-1.72,0,4.75,4.75,0,0,1-1.76-.48,3.83,3.83,0,0,1-1.43-1.26,4.94,4.94,0,0,1-.76-2.36,6.39,6.39,0,0,1,.29-2.41,17.48,17.48,0,0,1,1.18-2.91,33,33,0,0,1,1.9-3.24q1.12-1.7,2.46-3.41t2.82-3.38q1.48-1.68,3-3.22Zm-6.59,20.41a3.34,3.34,0,0,0,1.79-.76,6.84,6.84,0,0,0,1.45-1.66,13,13,0,0,0,1.12-2.25,23.69,23.69,0,0,0,.82-2.54q.34-1.29.54-2.51t.3-2.17a17,17,0,0,0-1.7,1.63q-.86.93-1.65,2T377,288.21q-.7,1.1-1.21,2.1a12.14,12.14,0,0,0-.77,1.85,3.62,3.62,0,0,0-.21,1.38C374.83,294.12,375.17,294.37,375.79,294.31Zm.93-25a7.65,7.65,0,0,0,.2,1.12,3.33,3.33,0,0,0,.39.95,1.92,1.92,0,0,0,.63.64,1.41,1.41,0,0,0,.91.18,2.1,2.1,0,0,0,1.48-.9,7.28,7.28,0,0,0,1-1.91,12.84,12.84,0,0,0,.61-2.24,13.23,13.23,0,0,0,.22-1.9l.72-7a4,4,0,0,0-1.81.67,7,7,0,0,0-1.58,1.46,11.64,11.64,0,0,0-1.29,2,14.74,14.74,0,0,0-.94,2.31,14.1,14.1,0,0,0-.52,2.39A9.85,9.85,0,0,0,376.72,269.34Z" transform="translate(-33.5 -33.5)"/><path class="cls-2" d="M141.2,341.22a6.77,6.77,0,0,0,1.76,4,15.33,15.33,0,0,0,3.9,3,39.21,39.21,0,0,0,5.32,2.43l6,2.29q3.1,1.18,6.07,2.59a28.46,28.46,0,0,1,5.41,3.31,17.57,17.57,0,0,1,4,4.45,13.6,13.6,0,0,1,2,6,16,16,0,0,1-.42,5.87,16.56,16.56,0,0,1-2.29,5,19.71,19.71,0,0,1-3.79,4.12,25.52,25.52,0,0,1-4.92,3.18,33,33,0,0,1-5.69,2.18,35.82,35.82,0,0,1-6.11,1.17,33.93,33.93,0,0,1-8.58-.2,23.89,23.89,0,0,1-7.64-2.46,16.86,16.86,0,0,1-5.68-4.84,14.45,14.45,0,0,1-2.7-7.35,10.05,10.05,0,0,1,.32-4,9.47,9.47,0,0,1,1.49-3,7.46,7.46,0,0,1,2.14-1.94,5.66,5.66,0,0,1,2.28-.81,2.88,2.88,0,0,1,1.93.42,2.32,2.32,0,0,1,.94,1.82,6.16,6.16,0,0,1,0,1.27c0,.45-.1.94-.15,1.48s-.09,1.12-.12,1.75a14.18,14.18,0,0,0,.07,2.07,7.81,7.81,0,0,0,1.54,4.1,9.18,9.18,0,0,0,3.26,2.63A14,14,0,0,0,146,383a22.09,22.09,0,0,0,5,.05,25.85,25.85,0,0,0,6-1.35,19.58,19.58,0,0,0,5.22-2.71,12.85,12.85,0,0,0,3.55-3.9,8,8,0,0,0,1-4.91,7.67,7.67,0,0,0-1.79-4.29,15.63,15.63,0,0,0-3.92-3.24,36.4,36.4,0,0,0-5.35-2.61l-6.05-2.38q-3.08-1.2-6.07-2.57a31.06,31.06,0,0,1-5.41-3.13,16.8,16.8,0,0,1-4-4.08,11.54,11.54,0,0,1-1.91-5.46,12.9,12.9,0,0,1,.83-5.91,15.13,15.13,0,0,1,3.73-5.52,22.87,22.87,0,0,1,6.72-4.36,32.21,32.21,0,0,1,9.82-2.41,23.84,23.84,0,0,1,7.2.36,21.11,21.11,0,0,1,6.5,2.44,16.23,16.23,0,0,1,4.86,4.29,11.67,11.67,0,0,1,2.27,5.93,13.23,13.23,0,0,1-.26,4.15,18.3,18.3,0,0,1-1.74,4.58,10.74,10.74,0,0,1-2.86,3.58,6.12,6.12,0,0,1-3,1.38,2.43,2.43,0,0,1-1.77-.44,2.38,2.38,0,0,1-.85-1.76,6.91,6.91,0,0,1,.2-2.19,13.85,13.85,0,0,1,1.14-3,14.44,14.44,0,0,0,1.1-3,7.87,7.87,0,0,0,.2-2.54,5.26,5.26,0,0,0-1.27-3,7.64,7.64,0,0,0-2.88-2,14.39,14.39,0,0,0-4.2-.95,28,28,0,0,0-5.24.08,18.69,18.69,0,0,0-5.38,1.27,13.09,13.09,0,0,0-3.68,2.24,7.69,7.69,0,0,0-2,2.76A5.79,5.79,0,0,0,141.2,341.22Z" transform="translate(-33.5 -33.5)"/><path class="cls-2" d="M202.57,354.8a18.8,18.8,0,0,1,1.95,4.11,19,19,0,0,1,.91,8.44,21.41,21.41,0,0,1-.9,4.17,19.77,19.77,0,0,1-1.72,3.87,14.92,14.92,0,0,1-2.52,3.25A13.47,13.47,0,0,1,197,381a11,11,0,0,1-3.93,1.14,9.86,9.86,0,0,1-5.38-.81,11.21,11.21,0,0,1-3.93-3.14,15.6,15.6,0,0,1-2.53-4.67,23.85,23.85,0,0,1-1.2-5.44,21.87,21.87,0,0,1,.42-7.28,17.36,17.36,0,0,1,2.7-6.12,15.3,15.3,0,0,1,4.85-4.4,16.72,16.72,0,0,1,6.83-2.12,18.5,18.5,0,0,1,6.31.4,23.82,23.82,0,0,1,5.7,2.2,31.19,31.19,0,0,1,5.11,3.48,60.64,60.64,0,0,1,4.53,4.19l-.16,5a20.46,20.46,0,0,0-2.82-2.46q-1.75-1.3-3.69-2.51t-3.8-2.27q-1.87-1.06-3.21-1.77Zm-8.79,20.5a3.19,3.19,0,0,0,2.18-1.44,11.4,11.4,0,0,0,1.64-3.23,20.92,20.92,0,0,0,.93-4.18,19.09,19.09,0,0,0,.08-4.28,17.18,17.18,0,0,0-.55-3,9.25,9.25,0,0,0-1-2.31,4.42,4.42,0,0,0-1.42-1.47,2.94,2.94,0,0,0-1.91-.41,4,4,0,0,0-2.59,1.5,11.48,11.48,0,0,0-1.95,3.35,20,20,0,0,0-1.21,8.84,13,13,0,0,0,.56,2.72,7.1,7.1,0,0,0,1.1,2.16,4.39,4.39,0,0,0,4.12,1.71Z" transform="translate(-33.5 -33.5)"/><path class="cls-2" d="M222,379.19a4.87,4.87,0,0,1-3.67-1.3,14.55,14.55,0,0,1-3.27-4.16,30.3,30.3,0,0,1-2.54-6.27,42.56,42.56,0,0,1-1.46-7.65,55.29,55.29,0,0,1-.23-6.79q.08-3.69.56-7.64t1.28-8a79.37,79.37,0,0,1,2-7.77,63.68,63.68,0,0,1,2.61-7,36.58,36.58,0,0,1,3.18-5.81,17.61,17.61,0,0,1,3.71-4.06,8.13,8.13,0,0,1,4.19-1.76,4.25,4.25,0,0,1,2.54.43,4.76,4.76,0,0,1,1.72,1.64,8.79,8.79,0,0,1,1,2.45,18.18,18.18,0,0,1,.52,2.85,31.09,31.09,0,0,1-.07,6.75,52.12,52.12,0,0,1-1.33,7q-.92,3.56-2.25,7.18t-2.79,7.2q-1.47,3.58-3,7.06T222,360.33a7.62,7.62,0,0,0-.27.94q-.13.58-.24,1.24t-.21,1.41c-.07.5-.11,1-.13,1.46l0,.49a8,8,0,0,0,.37,1.74,9.69,9.69,0,0,0,.63,1.49,4.63,4.63,0,0,0,.7,1,.84.84,0,0,0,.63.34A4.94,4.94,0,0,0,225,370a14.08,14.08,0,0,0,1.74-.93q.91-.57,1.86-1.28t1.83-1.44q2-1.69,4.26-3.85l3.6,7a72.29,72.29,0,0,1-5.73,4.6q-1.25.87-2.59,1.72t-2.71,1.56a22.29,22.29,0,0,1-2.7,1.17A10.82,10.82,0,0,1,222,379.19Zm-2.8-27.88q1.28-2.95,2.69-6.61t2.6-7.52q1.19-3.85,2-7.65a34.58,34.58,0,0,0,.77-7q-.1-1-.23-1.72t-.4-.68a3.18,3.18,0,0,0-2,1.53,17.74,17.74,0,0,0-2,3.77,41.55,41.55,0,0,0-1.7,5.42q-.76,3.07-1.26,6.5a65.32,65.32,0,0,0-.62,7A50.57,50.57,0,0,0,219.22,351.31Z" transform="translate(-33.5 -33.5)"/><path class="cls-2" d="M257.18,344.11a21.43,21.43,0,0,1,.05,2.58q0,1.64-.18,3.61t-.31,4.06l-.32,3.91q-.15,1.81-.22,3.17a14.26,14.26,0,0,0,0,1.89q.1,1,.22,1.79a6.19,6.19,0,0,0,.36,1.41,2,2,0,0,0,.63.89,1.54,1.54,0,0,0,1.1.22,5.89,5.89,0,0,0,1.83-.57,17.86,17.86,0,0,0,2.23-1.27q1.17-.77,2.38-1.72t2.28-2q1.08-1,1.94-2a13.93,13.93,0,0,0,1.38-1.81q.12,1.15.23,2.09t.2,1.79c.06.57.12,1.16.2,1.76s.15,1.28.22,2a19.8,19.8,0,0,1-1.73,1.83q-1,1-2.33,2t-2.76,2a32.47,32.47,0,0,1-3,1.73,24.09,24.09,0,0,1-3,1.29,12.47,12.47,0,0,1-2.82.66,4.61,4.61,0,0,1-2.32-.29,5,5,0,0,1-1.77-1.3,9.12,9.12,0,0,1-1.38-2.13,22.93,22.93,0,0,1-1.11-2.83,29.14,29.14,0,0,1-2.34,3.28,21.94,21.94,0,0,1-2.6,2.68,14,14,0,0,1-2.77,1.88,8,8,0,0,1-2.82.87,6.06,6.06,0,0,1-2.2-.17,4.46,4.46,0,0,1-1.93-1.11A6.54,6.54,0,0,1,233,374a12.83,12.83,0,0,1-.83-3.63,46.31,46.31,0,0,1-.05-6.9q.22-4.21.62-9.64,0-.53.12-1.44c.07-.61.18-1.27.33-2a19.51,19.51,0,0,1,.6-2.21,10.09,10.09,0,0,1,1-2.07,5.87,5.87,0,0,1,1.41-1.59,4,4,0,0,1,1.94-.8,7,7,0,0,1,2.7.2q.84.32.9.91-.13,1.88-.26,4.18t-.29,4.64q-.15,2.34-.28,4.55t-.23,3.95q-.11,1.74-.16,2.8t0,1.1a5.77,5.77,0,0,0,.24,1.19,3.83,3.83,0,0,0,.47,1,2.16,2.16,0,0,0,.7.67,1.51,1.51,0,0,0,.93.19,3.52,3.52,0,0,0,1.53-.56,5.51,5.51,0,0,0,1.4-1.3,7.78,7.78,0,0,0,1.08-2,9.79,9.79,0,0,0,.58-2.58l1.65-18.05a2.21,2.21,0,0,1,1.27-1.55,6.58,6.58,0,0,1,2.75-.86,5.48,5.48,0,0,1,2.89.34A1.85,1.85,0,0,1,257.18,344.11Z" transform="translate(-33.5 -33.5)"/><path class="cls-2" d="M296,363.78q-3.15,2.29-5.61,4t-4.4,2.91a27,27,0,0,1-3.47,1.83,9.91,9.91,0,0,1-2.83.78,7.33,7.33,0,0,1-4.83-1.13,12.13,12.13,0,0,1-3.85-4.27,29,29,0,0,1-2.78-7.09,62.35,62.35,0,0,1-1.66-9.58q-.21-2.09-.28-4.48t0-4.75c-.71,0-1.25-.05-1.65-.1l-1.24-.12c-.44,0-1-.07-1.67-.09s-1.64,0-2.91-.06a3.08,3.08,0,0,1-1.33-.27,1.9,1.9,0,0,1-.73-.63,2.15,2.15,0,0,1-.33-.81c-.05-.29-.09-.54-.11-.75a1.16,1.16,0,0,1,.57-1.13,5.65,5.65,0,0,1,1.69-.72,16,16,0,0,1,2.32-.43q1.27-.15,2.44-.23l2.1-.16a6.68,6.68,0,0,0,1.27-.18,79.3,79.3,0,0,1,1.46-9.35,52,52,0,0,1,2.44-8.17,21.72,21.72,0,0,1,3.36-5.9,6.39,6.39,0,0,1,4.25-2.53,4.81,4.81,0,0,1,2.82.56,7.38,7.38,0,0,1,2.33,2,11.4,11.4,0,0,1,1.67,3.12,15.94,15.94,0,0,1,.87,3.84,14.61,14.61,0,0,1-.12,3.66,27.51,27.51,0,0,1-.93,4,41.3,41.3,0,0,1-1.56,4.19q-.93,2.14-2,4.25c.21,0,.56,0,1.05-.05l1.7-.12,2.08-.12,2.17-.13,2-.13,1.5-.08a1.12,1.12,0,0,1,1.08.59,3.92,3.92,0,0,1,.48,1.64,2.86,2.86,0,0,1-.49,2.06,2.06,2.06,0,0,1-1.46.92L278,342q-.87,1.5-1.76,2.94t-1.65,2.61q.08,2.18.19,4.28l.12,1.87.12,1.91q.06.94.13,1.82c0,.58.1,1.12.15,1.6a12.44,12.44,0,0,0,.67,3.14,5.69,5.69,0,0,0,1.22,2,3.81,3.81,0,0,0,1.74,1,6,6,0,0,0,2.18.15,6.29,6.29,0,0,0,1.79-.53,20.25,20.25,0,0,0,2.31-1.2q1.25-.74,2.61-1.73t2.67-2.12q1.31-1.14,2.49-2.37a25.4,25.4,0,0,0,2.11-2.48Zm-15.64-43a8,8,0,0,0-.14-.85,3.19,3.19,0,0,0-.32-.87,1.54,1.54,0,0,0-1.67-.82q-.91.09-1.67,1.79a23.79,23.79,0,0,0-1.36,4.27q-.6,2.58-1,5.65t-.79,6l1.06,0h1.09q.86-1.88,1.79-4.07t1.62-4.28q.7-2.09,1.12-3.9A9.42,9.42,0,0,0,280.37,320.8Z" transform="translate(-33.5 -33.5)"/><path class="cls-2" d="M316.15,362.12a30.79,30.79,0,0,1-2.87,2.77,33.35,33.35,0,0,1-3.78,2.81,31.06,31.06,0,0,1-4.22,2.28,13.91,13.91,0,0,1-4.19,1.17,8.1,8.1,0,0,1-3.1-.2,5.1,5.1,0,0,1-2.15-1.21,5.46,5.46,0,0,1-1.32-2.1,11.72,11.72,0,0,1-.62-2.84,30.51,30.51,0,0,1,0-5.16q.21-3,.62-6.15t.92-6.38q.5-3.18.87-5.86a3.13,3.13,0,0,1,.82-1.65,6.32,6.32,0,0,1,1.55-1.21,9.29,9.29,0,0,1,1.86-.79,9.6,9.6,0,0,1,1.77-.37,2.78,2.78,0,0,1,2,.34A2,2,0,0,1,305,339a10.37,10.37,0,0,1-.12,2.25q-.2,1.48-.54,3.36t-.71,4.05q-.38,2.17-.69,4.33t-.45,4.2a21.47,21.47,0,0,0,0,3.64,7.3,7.3,0,0,0,.6,2.46,1.39,1.39,0,0,0,1.52.78,5.77,5.77,0,0,0,2.7-1.16,25,25,0,0,0,2.89-2.42q1.44-1.4,2.81-2.87t2.42-2.54Zm-19.22-34.24A5.87,5.87,0,0,1,298,324a6.31,6.31,0,0,1,1.94-1.71,7.76,7.76,0,0,1,3.2-.94,9.23,9.23,0,0,1,2.33,0,5.6,5.6,0,0,1,2,.66,4.09,4.09,0,0,1,1.43,1.39,4.94,4.94,0,0,1,.7,2.18,7,7,0,0,1-.15,2.34,5.42,5.42,0,0,1-1,2.11,6.35,6.35,0,0,1-2,1.63,7.81,7.81,0,0,1-3,.85,6.25,6.25,0,0,1-4.68-1A5.2,5.2,0,0,1,296.93,327.89Z" transform="translate(-33.5 -33.5)"/><path class="cls-2" d="M333.17,341.52a18.76,18.76,0,0,1,2,4.11,18.94,18.94,0,0,1,.91,8.44,21.34,21.34,0,0,1-.9,4.17,19.71,19.71,0,0,1-1.72,3.87,15,15,0,0,1-2.52,3.25,13.49,13.49,0,0,1-3.27,2.34,11,11,0,0,1-3.93,1.14,9.86,9.86,0,0,1-5.38-.81,11.19,11.19,0,0,1-3.93-3.14,15.56,15.56,0,0,1-2.54-4.67,24,24,0,0,1-1.2-5.44,21.89,21.89,0,0,1,.42-7.28,17.38,17.38,0,0,1,2.7-6.12,15.29,15.29,0,0,1,4.85-4.4,16.72,16.72,0,0,1,6.83-2.12,18.49,18.49,0,0,1,6.31.4,23.74,23.74,0,0,1,5.7,2.2,31.16,31.16,0,0,1,5.11,3.48,60.24,60.24,0,0,1,4.53,4.19l-.16,5a20.53,20.53,0,0,0-2.82-2.46q-1.75-1.3-3.69-2.51t-3.8-2.27q-1.87-1.06-3.21-1.77ZM324.37,362a3.19,3.19,0,0,0,2.18-1.44,11.44,11.44,0,0,0,1.64-3.23,20.92,20.92,0,0,0,.93-4.18,19.09,19.09,0,0,0,.08-4.28,17.18,17.18,0,0,0-.55-3,9.19,9.19,0,0,0-1-2.31,4.42,4.42,0,0,0-1.42-1.48,2.94,2.94,0,0,0-1.91-.4,4,4,0,0,0-2.59,1.5,11.5,11.5,0,0,0-1.95,3.35,20,20,0,0,0-1.21,8.84,12.93,12.93,0,0,0,.56,2.72,7.07,7.07,0,0,0,1.1,2.16,4.39,4.39,0,0,0,4.12,1.71Z" transform="translate(-33.5 -33.5)"/><path class="cls-2" d="M344.1,359.42q-.23-2.3-.26-5.34t.07-6.2q.1-3.16.33-6.11t.51-5a5.47,5.47,0,0,1,1.21-2.83,4.08,4.08,0,0,1,2.87-1.38,2.87,2.87,0,0,1,2.73.88,5.68,5.68,0,0,1,1,3,12.6,12.6,0,0,1,0,1.42q0,.9-.06,2t-.11,2.23q-.06,1.15-.12,2.12c0,.65-.07,1.22-.09,1.7a8.45,8.45,0,0,0,0,1l.7-.07.54-1.31.84-2.07q.48-1.17,1-2.48t1-2.5q.48-1.19.88-2.11c.26-.61.47-1.07.6-1.36a6.35,6.35,0,0,1,2.28-2.84,7.16,7.16,0,0,1,3.1-1,3.23,3.23,0,0,1,2.92,1.18,7,7,0,0,1,1.44,3.94,9,9,0,0,1,0,1.31q-.07.92-.18,2.2t-.26,2.81q-.14,1.53-.23,3.12t-.08,3.14a27.48,27.48,0,0,0,.13,2.84,10,10,0,0,0,.9,3.5,1.82,1.82,0,0,0,1.83,1.22,2.93,2.93,0,0,0,1.17-.43,12.09,12.09,0,0,0,1.38-1,18.33,18.33,0,0,0,1.48-1.33q.75-.75,1.48-1.52,1.68-1.83,3.49-4.09l1.39,7.75-1.61,1.5q-1.32,1.23-2.69,2.46a26.27,26.27,0,0,1-2.89,2.25,19.27,19.27,0,0,1-3.2,1.73,12.35,12.35,0,0,1-3.6.91q-1.92.19-3.5-2.44a19.76,19.76,0,0,1-2.13-8,39.63,39.63,0,0,1-.18-4.54q0-2.45.17-5.28l-.56.06-7.29,19a4.52,4.52,0,0,1-1.37,2.11,3.87,3.87,0,0,1-2,.73,3.67,3.67,0,0,1-3.87-1.88,7.87,7.87,0,0,1-.87-2.27A22.8,22.8,0,0,1,344.1,359.42Z" transform="translate(-33.5 -33.5)"/><path class="cls-2" d="M374.67,350.15q1.78-1.87,2.89-3.11t1.88-2.25a22.92,22.92,0,0,0,1.39-2l1.46-2.4,2-3.4q1.2-2,3.15-5a11.92,11.92,0,0,1,.89-1.32,7.68,7.68,0,0,1,1.13-1.19,6.55,6.55,0,0,1,1.42-.92,5.37,5.37,0,0,1,1.8-.48,7.18,7.18,0,0,1,2.62.11,3.2,3.2,0,0,1,1.42.75,2.18,2.18,0,0,1,.6,1,8.55,8.55,0,0,1,.17,1,3.47,3.47,0,0,1-.48,1.91,19.5,19.5,0,0,1-1.26,2.1q-.71,1-1.34,1.88a3.64,3.64,0,0,0-.7,1.25,11.48,11.48,0,0,0,.36,2,14.53,14.53,0,0,0,.6,1.7q.35.83.72,1.76t.77,2.16a26.94,26.94,0,0,1,.71,2.85q.32,1.62.55,3.85a20.8,20.8,0,0,1,2.55-1.79l2.87-1.72q1.49-.89,3.06-1.95A26.22,26.22,0,0,0,409,344.4l.83,7.8a32.52,32.52,0,0,1-4.68,3.64,49.33,49.33,0,0,1-5.7,3.18,45.41,45.41,0,0,1-6.13,2.4,30.84,30.84,0,0,1-6,1.26,18.33,18.33,0,0,1-3.87,0,10,10,0,0,1-3.24-.88,6.66,6.66,0,0,1-2.4-1.92,7.21,7.21,0,0,1-1.34-3.1,7,7,0,0,1-.94.24q-.47.08-.92.13c-.37,0-.72.06-1,.07a1.73,1.73,0,0,1-.86-.18,1.55,1.55,0,0,1-.63-.67,4,4,0,0,1-.36-1.42,3,3,0,0,1,.26-1.59,6.35,6.35,0,0,1,.85-1.37,10.51,10.51,0,0,1,1-1.09C374.24,350.58,374.5,350.33,374.67,350.15Zm4.91,4a1.39,1.39,0,0,1,1,.43q.56.47,1.29,1a8.75,8.75,0,0,0,1.65,1,3.79,3.79,0,0,0,2,.32,5,5,0,0,0,2.2-.68A3.77,3.77,0,0,0,389,354.9a4.73,4.73,0,0,0,.55-1.82,10.21,10.21,0,0,0,0-2.09,15.68,15.68,0,0,0-.32-1.9c-.15-.64-.32-1.25-.5-1.83s-.38-1.12-.59-1.63-.38-.94-.54-1.3Z" transform="translate(-33.5 -33.5)"/></svg>